<?xml version="1.0" encoding="utf-8" standalone="no"?>
<!DOCTYPE svg PUBLIC "-//W3C//DTD SVG 1.1//EN"
  "http://www.w3.org/Graphics/SVG/1.1/DTD/svg11.dtd">
<svg xmlns:xlink="http://www.w3.org/1999/xlink" width="496.110937pt" height="200.300625pt" viewBox="0 0 496.110937 200.300625" xmlns="http://www.w3.org/2000/svg" version="1.1">
 <metadata>
  <rdf:RDF xmlns:dc="http://purl.org/dc/elements/1.1/" xmlns:cc="http://creativecommons.org/ns#" xmlns:rdf="http://www.w3.org/1999/02/22-rdf-syntax-ns#">
   <cc:Work>
    <dc:type rdf:resource="http://purl.org/dc/dcmitype/StillImage"/>
    <dc:format>image/svg+xml</dc:format>
    <dc:creator>
     <cc:Agent>
      <dc:title>Matplotlib v3.10.8, https://matplotlib.org/</dc:title>
     </cc:Agent>
    </dc:creator>
   </cc:Work>
  </rdf:RDF>
 </metadata>
 <defs>
  <style type="text/css">*{stroke-linejoin: round; stroke-linecap: butt}</style>
 </defs>
 <g id="figure_1">
  <g id="patch_1">
   <path d="M 0 200.300625 
L 496.110937 200.300625 
L 496.110937 0 
L 0 0 
z
" style="fill: #ffffff"/>
  </g>
  <g id="axes_1">
   <g id="patch_2">
    <path d="M 32.636563 164.68 
L 480.321562 164.68 
L 480.321562 7.2 
L 32.636563 7.2 
z
" style="fill: #ffffff"/>
   </g>
   <g id="matplotlib.axis_1">
    <g id="xtick_1">
     <g id="line2d_1">
      <path d="M 32.636563 164.68 
L 32.636563 7.2 
" clip-path="url(#pbfe7d9f0b4)" style="fill: none; stroke: #b0b0b0; stroke-opacity: 0.18; stroke-width: 0.8; stroke-linecap: square"/>
     </g>
     <g id="line2d_2">
      <defs>
       <path id="m48737e7e92" d="M 0 0 
L 0 3.5 
" style="stroke: #000000; stroke-width: 0.8"/>
      </defs>
      <g>
       <use xlink:href="#m48737e7e92" x="32.636563" y="164.68" style="stroke: #000000; stroke-width: 0.8"/>
      </g>
     </g>
     <g id="text_1">
      <!-- 0 -->
      <g transform="translate(29.773438 178.518594) scale(0.09 -0.09)">
       <defs>
        <path id="DejaVuSans-30" d="M 2034 4250 
Q 1547 4250 1301 3770 
Q 1056 3291 1056 2328 
Q 1056 1369 1301 889 
Q 1547 409 2034 409 
Q 2525 409 2770 889 
Q 3016 1369 3016 2328 
Q 3016 3291 2770 3770 
Q 2525 4250 2034 4250 
z
M 2034 4750 
Q 2819 4750 3233 4129 
Q 3647 3509 3647 2328 
Q 3647 1150 3233 529 
Q 2819 -91 2034 -91 
Q 1250 -91 836 529 
Q 422 1150 422 2328 
Q 422 3509 836 4129 
Q 1250 4750 2034 4750 
z
" transform="scale(0.015625)"/>
       </defs>
       <use xlink:href="#DejaVuSans-30"/>
      </g>
     </g>
    </g>
    <g id="xtick_2">
     <g id="line2d_3">
      <path d="M 122.173563 164.68 
L 122.173563 7.2 
" clip-path="url(#pbfe7d9f0b4)" style="fill: none; stroke: #b0b0b0; stroke-opacity: 0.18; stroke-width: 0.8; stroke-linecap: square"/>
     </g>
     <g id="line2d_4">
      <g>
       <use xlink:href="#m48737e7e92" x="122.173563" y="164.68" style="stroke: #000000; stroke-width: 0.8"/>
      </g>
     </g>
     <g id="text_2">
      <!-- 20 -->
      <g transform="translate(116.447313 178.518594) scale(0.09 -0.09)">
       <defs>
        <path id="DejaVuSans-32" d="M 1228 531 
L 3431 531 
L 3431 0 
L 469 0 
L 469 531 
Q 828 903 1448 1529 
Q 2069 2156 2228 2338 
Q 2531 2678 2651 2914 
Q 2772 3150 2772 3378 
Q 2772 3750 2511 3984 
Q 2250 4219 1831 4219 
Q 1534 4219 1204 4116 
Q 875 4013 500 3803 
L 500 4441 
Q 881 4594 1212 4672 
Q 1544 4750 1819 4750 
Q 2544 4750 2975 4387 
Q 3406 4025 3406 3419 
Q 3406 3131 3298 2873 
Q 3191 2616 2906 2266 
Q 2828 2175 2409 1742 
Q 1991 1309 1228 531 
z
" transform="scale(0.015625)"/>
       </defs>
       <use xlink:href="#DejaVuSans-32"/>
       <use xlink:href="#DejaVuSans-30" transform="translate(63.623047 0)"/>
      </g>
     </g>
    </g>
    <g id="xtick_3">
     <g id="line2d_5">
      <path d="M 211.710562 164.68 
L 211.710562 7.2 
" clip-path="url(#pbfe7d9f0b4)" style="fill: none; stroke: #b0b0b0; stroke-opacity: 0.18; stroke-width: 0.8; stroke-linecap: square"/>
     </g>
     <g id="line2d_6">
      <g>
       <use xlink:href="#m48737e7e92" x="211.710562" y="164.68" style="stroke: #000000; stroke-width: 0.8"/>
      </g>
     </g>
     <g id="text_3">
      <!-- 40 -->
      <g transform="translate(205.984312 178.518594) scale(0.09 -0.09)">
       <defs>
        <path id="DejaVuSans-34" d="M 2419 4116 
L 825 1625 
L 2419 1625 
L 2419 4116 
z
M 2253 4666 
L 3047 4666 
L 3047 1625 
L 3713 1625 
L 3713 1100 
L 3047 1100 
L 3047 0 
L 2419 0 
L 2419 1100 
L 313 1100 
L 313 1709 
L 2253 4666 
z
" transform="scale(0.015625)"/>
       </defs>
       <use xlink:href="#DejaVuSans-34"/>
       <use xlink:href="#DejaVuSans-30" transform="translate(63.623047 0)"/>
      </g>
     </g>
    </g>
    <g id="xtick_4">
     <g id="line2d_7">
      <path d="M 301.247563 164.68 
L 301.247563 7.2 
" clip-path="url(#pbfe7d9f0b4)" style="fill: none; stroke: #b0b0b0; stroke-opacity: 0.18; stroke-width: 0.8; stroke-linecap: square"/>
     </g>
     <g id="line2d_8">
      <g>
       <use xlink:href="#m48737e7e92" x="301.247563" y="164.68" style="stroke: #000000; stroke-width: 0.8"/>
      </g>
     </g>
     <g id="text_4">
      <!-- 60 -->
      <g transform="translate(295.521313 178.518594) scale(0.09 -0.09)">
       <defs>
        <path id="DejaVuSans-36" d="M 2113 2584 
Q 1688 2584 1439 2293 
Q 1191 2003 1191 1497 
Q 1191 994 1439 701 
Q 1688 409 2113 409 
Q 2538 409 2786 701 
Q 3034 994 3034 1497 
Q 3034 2003 2786 2293 
Q 2538 2584 2113 2584 
z
M 3366 4563 
L 3366 3988 
Q 3128 4100 2886 4159 
Q 2644 4219 2406 4219 
Q 1781 4219 1451 3797 
Q 1122 3375 1075 2522 
Q 1259 2794 1537 2939 
Q 1816 3084 2150 3084 
Q 2853 3084 3261 2657 
Q 3669 2231 3669 1497 
Q 3669 778 3244 343 
Q 2819 -91 2113 -91 
Q 1303 -91 875 529 
Q 447 1150 447 2328 
Q 447 3434 972 4092 
Q 1497 4750 2381 4750 
Q 2619 4750 2861 4703 
Q 3103 4656 3366 4563 
z
" transform="scale(0.015625)"/>
       </defs>
       <use xlink:href="#DejaVuSans-36"/>
       <use xlink:href="#DejaVuSans-30" transform="translate(63.623047 0)"/>
      </g>
     </g>
    </g>
    <g id="xtick_5">
     <g id="line2d_9">
      <path d="M 390.784562 164.68 
L 390.784562 7.2 
" clip-path="url(#pbfe7d9f0b4)" style="fill: none; stroke: #b0b0b0; stroke-opacity: 0.18; stroke-width: 0.8; stroke-linecap: square"/>
     </g>
     <g id="line2d_10">
      <g>
       <use xlink:href="#m48737e7e92" x="390.784562" y="164.68" style="stroke: #000000; stroke-width: 0.8"/>
      </g>
     </g>
     <g id="text_5">
      <!-- 80 -->
      <g transform="translate(385.058312 178.518594) scale(0.09 -0.09)">
       <defs>
        <path id="DejaVuSans-38" d="M 2034 2216 
Q 1584 2216 1326 1975 
Q 1069 1734 1069 1313 
Q 1069 891 1326 650 
Q 1584 409 2034 409 
Q 2484 409 2743 651 
Q 3003 894 3003 1313 
Q 3003 1734 2745 1975 
Q 2488 2216 2034 2216 
z
M 1403 2484 
Q 997 2584 770 2862 
Q 544 3141 544 3541 
Q 544 4100 942 4425 
Q 1341 4750 2034 4750 
Q 2731 4750 3128 4425 
Q 3525 4100 3525 3541 
Q 3525 3141 3298 2862 
Q 3072 2584 2669 2484 
Q 3125 2378 3379 2068 
Q 3634 1759 3634 1313 
Q 3634 634 3220 271 
Q 2806 -91 2034 -91 
Q 1263 -91 848 271 
Q 434 634 434 1313 
Q 434 1759 690 2068 
Q 947 2378 1403 2484 
z
M 1172 3481 
Q 1172 3119 1398 2916 
Q 1625 2713 2034 2713 
Q 2441 2713 2670 2916 
Q 2900 3119 2900 3481 
Q 2900 3844 2670 4047 
Q 2441 4250 2034 4250 
Q 1625 4250 1398 4047 
Q 1172 3844 1172 3481 
z
" transform="scale(0.015625)"/>
       </defs>
       <use xlink:href="#DejaVuSans-38"/>
       <use xlink:href="#DejaVuSans-30" transform="translate(63.623047 0)"/>
      </g>
     </g>
    </g>
    <g id="xtick_6">
     <g id="line2d_11">
      <path d="M 480.321563 164.68 
L 480.321563 7.2 
" clip-path="url(#pbfe7d9f0b4)" style="fill: none; stroke: #b0b0b0; stroke-opacity: 0.18; stroke-width: 0.8; stroke-linecap: square"/>
     </g>
     <g id="line2d_12">
      <g>
       <use xlink:href="#m48737e7e92" x="480.321563" y="164.68" style="stroke: #000000; stroke-width: 0.8"/>
      </g>
     </g>
     <g id="text_6">
      <!-- 100 -->
      <g transform="translate(471.732188 178.518594) scale(0.09 -0.09)">
       <defs>
        <path id="DejaVuSans-31" d="M 794 531 
L 1825 531 
L 1825 4091 
L 703 3866 
L 703 4441 
L 1819 4666 
L 2450 4666 
L 2450 531 
L 3481 531 
L 3481 0 
L 794 0 
L 794 531 
z
" transform="scale(0.015625)"/>
       </defs>
       <use xlink:href="#DejaVuSans-31"/>
       <use xlink:href="#DejaVuSans-30" transform="translate(63.623047 0)"/>
       <use xlink:href="#DejaVuSans-30" transform="translate(127.246094 0)"/>
      </g>
     </g>
    </g>
    <g id="text_7">
     <!-- Accepted coverage (%) -->
     <g transform="translate(203.974609 191.228906) scale(0.09 -0.09)">
      <defs>
       <path id="DejaVuSans-41" d="M 2188 4044 
L 1331 1722 
L 3047 1722 
L 2188 4044 
z
M 1831 4666 
L 2547 4666 
L 4325 0 
L 3669 0 
L 3244 1197 
L 1141 1197 
L 716 0 
L 50 0 
L 1831 4666 
z
" transform="scale(0.015625)"/>
       <path id="DejaVuSans-63" d="M 3122 3366 
L 3122 2828 
Q 2878 2963 2633 3030 
Q 2388 3097 2138 3097 
Q 1578 3097 1268 2742 
Q 959 2388 959 1747 
Q 959 1106 1268 751 
Q 1578 397 2138 397 
Q 2388 397 2633 464 
Q 2878 531 3122 666 
L 3122 134 
Q 2881 22 2623 -34 
Q 2366 -91 2075 -91 
Q 1284 -91 818 406 
Q 353 903 353 1747 
Q 353 2603 823 3093 
Q 1294 3584 2113 3584 
Q 2378 3584 2631 3529 
Q 2884 3475 3122 3366 
z
" transform="scale(0.015625)"/>
       <path id="DejaVuSans-65" d="M 3597 1894 
L 3597 1613 
L 953 1613 
Q 991 1019 1311 708 
Q 1631 397 2203 397 
Q 2534 397 2845 478 
Q 3156 559 3463 722 
L 3463 178 
Q 3153 47 2828 -22 
Q 2503 -91 2169 -91 
Q 1331 -91 842 396 
Q 353 884 353 1716 
Q 353 2575 817 3079 
Q 1281 3584 2069 3584 
Q 2775 3584 3186 3129 
Q 3597 2675 3597 1894 
z
M 3022 2063 
Q 3016 2534 2758 2815 
Q 2500 3097 2075 3097 
Q 1594 3097 1305 2825 
Q 1016 2553 972 2059 
L 3022 2063 
z
" transform="scale(0.015625)"/>
       <path id="DejaVuSans-70" d="M 1159 525 
L 1159 -1331 
L 581 -1331 
L 581 3500 
L 1159 3500 
L 1159 2969 
Q 1341 3281 1617 3432 
Q 1894 3584 2278 3584 
Q 2916 3584 3314 3078 
Q 3713 2572 3713 1747 
Q 3713 922 3314 415 
Q 2916 -91 2278 -91 
Q 1894 -91 1617 61 
Q 1341 213 1159 525 
z
M 3116 1747 
Q 3116 2381 2855 2742 
Q 2594 3103 2138 3103 
Q 1681 3103 1420 2742 
Q 1159 2381 1159 1747 
Q 1159 1113 1420 752 
Q 1681 391 2138 391 
Q 2594 391 2855 752 
Q 3116 1113 3116 1747 
z
" transform="scale(0.015625)"/>
       <path id="DejaVuSans-74" d="M 1172 4494 
L 1172 3500 
L 2356 3500 
L 2356 3053 
L 1172 3053 
L 1172 1153 
Q 1172 725 1289 603 
Q 1406 481 1766 481 
L 2356 481 
L 2356 0 
L 1766 0 
Q 1100 0 847 248 
Q 594 497 594 1153 
L 594 3053 
L 172 3053 
L 172 3500 
L 594 3500 
L 594 4494 
L 1172 4494 
z
" transform="scale(0.015625)"/>
       <path id="DejaVuSans-64" d="M 2906 2969 
L 2906 4863 
L 3481 4863 
L 3481 0 
L 2906 0 
L 2906 525 
Q 2725 213 2448 61 
Q 2172 -91 1784 -91 
Q 1150 -91 751 415 
Q 353 922 353 1747 
Q 353 2572 751 3078 
Q 1150 3584 1784 3584 
Q 2172 3584 2448 3432 
Q 2725 3281 2906 2969 
z
M 947 1747 
Q 947 1113 1208 752 
Q 1469 391 1925 391 
Q 2381 391 2643 752 
Q 2906 1113 2906 1747 
Q 2906 2381 2643 2742 
Q 2381 3103 1925 3103 
Q 1469 3103 1208 2742 
Q 947 2381 947 1747 
z
" transform="scale(0.015625)"/>
       <path id="DejaVuSans-20" transform="scale(0.015625)"/>
       <path id="DejaVuSans-6f" d="M 1959 3097 
Q 1497 3097 1228 2736 
Q 959 2375 959 1747 
Q 959 1119 1226 758 
Q 1494 397 1959 397 
Q 2419 397 2687 759 
Q 2956 1122 2956 1747 
Q 2956 2369 2687 2733 
Q 2419 3097 1959 3097 
z
M 1959 3584 
Q 2709 3584 3137 3096 
Q 3566 2609 3566 1747 
Q 3566 888 3137 398 
Q 2709 -91 1959 -91 
Q 1206 -91 779 398 
Q 353 888 353 1747 
Q 353 2609 779 3096 
Q 1206 3584 1959 3584 
z
" transform="scale(0.015625)"/>
       <path id="DejaVuSans-76" d="M 191 3500 
L 800 3500 
L 1894 563 
L 2988 3500 
L 3597 3500 
L 2284 0 
L 1503 0 
L 191 3500 
z
" transform="scale(0.015625)"/>
       <path id="DejaVuSans-72" d="M 2631 2963 
Q 2534 3019 2420 3045 
Q 2306 3072 2169 3072 
Q 1681 3072 1420 2755 
Q 1159 2438 1159 1844 
L 1159 0 
L 581 0 
L 581 3500 
L 1159 3500 
L 1159 2956 
Q 1341 3275 1631 3429 
Q 1922 3584 2338 3584 
Q 2397 3584 2469 3576 
Q 2541 3569 2628 3553 
L 2631 2963 
z
" transform="scale(0.015625)"/>
       <path id="DejaVuSans-61" d="M 2194 1759 
Q 1497 1759 1228 1600 
Q 959 1441 959 1056 
Q 959 750 1161 570 
Q 1363 391 1709 391 
Q 2188 391 2477 730 
Q 2766 1069 2766 1631 
L 2766 1759 
L 2194 1759 
z
M 3341 1997 
L 3341 0 
L 2766 0 
L 2766 531 
Q 2569 213 2275 61 
Q 1981 -91 1556 -91 
Q 1019 -91 701 211 
Q 384 513 384 1019 
Q 384 1609 779 1909 
Q 1175 2209 1959 2209 
L 2766 2209 
L 2766 2266 
Q 2766 2663 2505 2880 
Q 2244 3097 1772 3097 
Q 1472 3097 1187 3025 
Q 903 2953 641 2809 
L 641 3341 
Q 956 3463 1253 3523 
Q 1550 3584 1831 3584 
Q 2591 3584 2966 3190 
Q 3341 2797 3341 1997 
z
" transform="scale(0.015625)"/>
       <path id="DejaVuSans-67" d="M 2906 1791 
Q 2906 2416 2648 2759 
Q 2391 3103 1925 3103 
Q 1463 3103 1205 2759 
Q 947 2416 947 1791 
Q 947 1169 1205 825 
Q 1463 481 1925 481 
Q 2391 481 2648 825 
Q 2906 1169 2906 1791 
z
M 3481 434 
Q 3481 -459 3084 -895 
Q 2688 -1331 1869 -1331 
Q 1566 -1331 1297 -1286 
Q 1028 -1241 775 -1147 
L 775 -588 
Q 1028 -725 1275 -790 
Q 1522 -856 1778 -856 
Q 2344 -856 2625 -561 
Q 2906 -266 2906 331 
L 2906 616 
Q 2728 306 2450 153 
Q 2172 0 1784 0 
Q 1141 0 747 490 
Q 353 981 353 1791 
Q 353 2603 747 3093 
Q 1141 3584 1784 3584 
Q 2172 3584 2450 3431 
Q 2728 3278 2906 2969 
L 2906 3500 
L 3481 3500 
L 3481 434 
z
" transform="scale(0.015625)"/>
       <path id="DejaVuSans-28" d="M 1984 4856 
Q 1566 4138 1362 3434 
Q 1159 2731 1159 2009 
Q 1159 1288 1364 580 
Q 1569 -128 1984 -844 
L 1484 -844 
Q 1016 -109 783 600 
Q 550 1309 550 2009 
Q 550 2706 781 3412 
Q 1013 4119 1484 4856 
L 1984 4856 
z
" transform="scale(0.015625)"/>
       <path id="DejaVuSans-25" d="M 4653 2053 
Q 4381 2053 4226 1822 
Q 4072 1591 4072 1178 
Q 4072 772 4226 539 
Q 4381 306 4653 306 
Q 4919 306 5073 539 
Q 5228 772 5228 1178 
Q 5228 1588 5073 1820 
Q 4919 2053 4653 2053 
z
M 4653 2450 
Q 5147 2450 5437 2106 
Q 5728 1763 5728 1178 
Q 5728 594 5436 251 
Q 5144 -91 4653 -91 
Q 4153 -91 3862 251 
Q 3572 594 3572 1178 
Q 3572 1766 3864 2108 
Q 4156 2450 4653 2450 
z
M 1428 4353 
Q 1159 4353 1004 4120 
Q 850 3888 850 3481 
Q 850 3069 1003 2837 
Q 1156 2606 1428 2606 
Q 1700 2606 1854 2837 
Q 2009 3069 2009 3481 
Q 2009 3884 1853 4118 
Q 1697 4353 1428 4353 
z
M 4250 4750 
L 4750 4750 
L 1831 -91 
L 1331 -91 
L 4250 4750 
z
M 1428 4750 
Q 1922 4750 2215 4408 
Q 2509 4066 2509 3481 
Q 2509 2891 2217 2550 
Q 1925 2209 1428 2209 
Q 931 2209 642 2551 
Q 353 2894 353 3481 
Q 353 4063 643 4406 
Q 934 4750 1428 4750 
z
" transform="scale(0.015625)"/>
       <path id="DejaVuSans-29" d="M 513 4856 
L 1013 4856 
Q 1481 4119 1714 3412 
Q 1947 2706 1947 2009 
Q 1947 1309 1714 600 
Q 1481 -109 1013 -844 
L 513 -844 
Q 928 -128 1133 580 
Q 1338 1288 1338 2009 
Q 1338 2731 1133 3434 
Q 928 4138 513 4856 
z
" transform="scale(0.015625)"/>
      </defs>
      <use xlink:href="#DejaVuSans-41"/>
      <use xlink:href="#DejaVuSans-63" transform="translate(66.658203 0)"/>
      <use xlink:href="#DejaVuSans-63" transform="translate(121.638672 0)"/>
      <use xlink:href="#DejaVuSans-65" transform="translate(176.619141 0)"/>
      <use xlink:href="#DejaVuSans-70" transform="translate(238.142578 0)"/>
      <use xlink:href="#DejaVuSans-74" transform="translate(301.619141 0)"/>
      <use xlink:href="#DejaVuSans-65" transform="translate(340.828125 0)"/>
      <use xlink:href="#DejaVuSans-64" transform="translate(402.351562 0)"/>
      <use xlink:href="#DejaVuSans-20" transform="translate(465.828125 0)"/>
      <use xlink:href="#DejaVuSans-63" transform="translate(497.615234 0)"/>
      <use xlink:href="#DejaVuSans-6f" transform="translate(552.595703 0)"/>
      <use xlink:href="#DejaVuSans-76" transform="translate(613.777344 0)"/>
      <use xlink:href="#DejaVuSans-65" transform="translate(672.957031 0)"/>
      <use xlink:href="#DejaVuSans-72" transform="translate(734.480469 0)"/>
      <use xlink:href="#DejaVuSans-61" transform="translate(775.59375 0)"/>
      <use xlink:href="#DejaVuSans-67" transform="translate(836.873047 0)"/>
      <use xlink:href="#DejaVuSans-65" transform="translate(900.349609 0)"/>
      <use xlink:href="#DejaVuSans-20" transform="translate(961.873047 0)"/>
      <use xlink:href="#DejaVuSans-28" transform="translate(993.660156 0)"/>
      <use xlink:href="#DejaVuSans-25" transform="translate(1032.673828 0)"/>
      <use xlink:href="#DejaVuSans-29" transform="translate(1127.693359 0)"/>
     </g>
    </g>
   </g>
   <g id="matplotlib.axis_2">
    <g id="ytick_1">
     <g id="line2d_13">
      <path d="M 32.636563 164.68 
L 480.321562 164.68 
" clip-path="url(#pbfe7d9f0b4)" style="fill: none; stroke: #b0b0b0; stroke-opacity: 0.18; stroke-width: 0.8; stroke-linecap: square"/>
     </g>
     <g id="line2d_14">
      <defs>
       <path id="m1f63279d81" d="M 0 0 
L -3.5 0 
" style="stroke: #000000; stroke-width: 0.8"/>
      </defs>
      <g>
       <use xlink:href="#m1f63279d81" x="32.636563" y="164.68" style="stroke: #000000; stroke-width: 0.8"/>
      </g>
     </g>
     <g id="text_8">
      <!-- 0 -->
      <g transform="translate(19.910313 168.099297) scale(0.09 -0.09)">
       <use xlink:href="#DejaVuSans-30"/>
      </g>
     </g>
    </g>
    <g id="ytick_2">
     <g id="line2d_15">
      <path d="M 32.636563 142.807778 
L 480.321562 142.807778 
" clip-path="url(#pbfe7d9f0b4)" style="fill: none; stroke: #b0b0b0; stroke-opacity: 0.18; stroke-width: 0.8; stroke-linecap: square"/>
     </g>
     <g id="line2d_16">
      <g>
       <use xlink:href="#m1f63279d81" x="32.636563" y="142.807778" style="stroke: #000000; stroke-width: 0.8"/>
      </g>
     </g>
     <g id="text_9">
      <!-- 1 -->
      <g transform="translate(19.910313 146.227075) scale(0.09 -0.09)">
       <use xlink:href="#DejaVuSans-31"/>
      </g>
     </g>
    </g>
    <g id="ytick_3">
     <g id="line2d_17">
      <path d="M 32.636563 120.935556 
L 480.321562 120.935556 
" clip-path="url(#pbfe7d9f0b4)" style="fill: none; stroke: #b0b0b0; stroke-opacity: 0.18; stroke-width: 0.8; stroke-linecap: square"/>
     </g>
     <g id="line2d_18">
      <g>
       <use xlink:href="#m1f63279d81" x="32.636563" y="120.935556" style="stroke: #000000; stroke-width: 0.8"/>
      </g>
     </g>
     <g id="text_10">
      <!-- 2 -->
      <g transform="translate(19.910313 124.354852) scale(0.09 -0.09)">
       <use xlink:href="#DejaVuSans-32"/>
      </g>
     </g>
    </g>
    <g id="ytick_4">
     <g id="line2d_19">
      <path d="M 32.636563 99.063333 
L 480.321562 99.063333 
" clip-path="url(#pbfe7d9f0b4)" style="fill: none; stroke: #b0b0b0; stroke-opacity: 0.18; stroke-width: 0.8; stroke-linecap: square"/>
     </g>
     <g id="line2d_20">
      <g>
       <use xlink:href="#m1f63279d81" x="32.636563" y="99.063333" style="stroke: #000000; stroke-width: 0.8"/>
      </g>
     </g>
     <g id="text_11">
      <!-- 3 -->
      <g transform="translate(19.910313 102.48263) scale(0.09 -0.09)">
       <defs>
        <path id="DejaVuSans-33" d="M 2597 2516 
Q 3050 2419 3304 2112 
Q 3559 1806 3559 1356 
Q 3559 666 3084 287 
Q 2609 -91 1734 -91 
Q 1441 -91 1130 -33 
Q 819 25 488 141 
L 488 750 
Q 750 597 1062 519 
Q 1375 441 1716 441 
Q 2309 441 2620 675 
Q 2931 909 2931 1356 
Q 2931 1769 2642 2001 
Q 2353 2234 1838 2234 
L 1294 2234 
L 1294 2753 
L 1863 2753 
Q 2328 2753 2575 2939 
Q 2822 3125 2822 3475 
Q 2822 3834 2567 4026 
Q 2313 4219 1838 4219 
Q 1578 4219 1281 4162 
Q 984 4106 628 3988 
L 628 4550 
Q 988 4650 1302 4700 
Q 1616 4750 1894 4750 
Q 2613 4750 3031 4423 
Q 3450 4097 3450 3541 
Q 3450 3153 3228 2886 
Q 3006 2619 2597 2516 
z
" transform="scale(0.015625)"/>
       </defs>
       <use xlink:href="#DejaVuSans-33"/>
      </g>
     </g>
    </g>
    <g id="ytick_5">
     <g id="line2d_21">
      <path d="M 32.636563 77.191111 
L 480.321562 77.191111 
" clip-path="url(#pbfe7d9f0b4)" style="fill: none; stroke: #b0b0b0; stroke-opacity: 0.18; stroke-width: 0.8; stroke-linecap: square"/>
     </g>
     <g id="line2d_22">
      <g>
       <use xlink:href="#m1f63279d81" x="32.636563" y="77.191111" style="stroke: #000000; stroke-width: 0.8"/>
      </g>
     </g>
     <g id="text_12">
      <!-- 4 -->
      <g transform="translate(19.910313 80.610408) scale(0.09 -0.09)">
       <use xlink:href="#DejaVuSans-34"/>
      </g>
     </g>
    </g>
    <g id="ytick_6">
     <g id="line2d_23">
      <path d="M 32.636563 55.318889 
L 480.321562 55.318889 
" clip-path="url(#pbfe7d9f0b4)" style="fill: none; stroke: #b0b0b0; stroke-opacity: 0.18; stroke-width: 0.8; stroke-linecap: square"/>
     </g>
     <g id="line2d_24">
      <g>
       <use xlink:href="#m1f63279d81" x="32.636563" y="55.318889" style="stroke: #000000; stroke-width: 0.8"/>
      </g>
     </g>
     <g id="text_13">
      <!-- 5 -->
      <g transform="translate(19.910313 58.738186) scale(0.09 -0.09)">
       <defs>
        <path id="DejaVuSans-35" d="M 691 4666 
L 3169 4666 
L 3169 4134 
L 1269 4134 
L 1269 2991 
Q 1406 3038 1543 3061 
Q 1681 3084 1819 3084 
Q 2600 3084 3056 2656 
Q 3513 2228 3513 1497 
Q 3513 744 3044 326 
Q 2575 -91 1722 -91 
Q 1428 -91 1123 -41 
Q 819 9 494 109 
L 494 744 
Q 775 591 1075 516 
Q 1375 441 1709 441 
Q 2250 441 2565 725 
Q 2881 1009 2881 1497 
Q 2881 1984 2565 2268 
Q 2250 2553 1709 2553 
Q 1456 2553 1204 2497 
Q 953 2441 691 2322 
L 691 4666 
z
" transform="scale(0.015625)"/>
       </defs>
       <use xlink:href="#DejaVuSans-35"/>
      </g>
     </g>
    </g>
    <g id="ytick_7">
     <g id="line2d_25">
      <path d="M 32.636563 33.446667 
L 480.321562 33.446667 
" clip-path="url(#pbfe7d9f0b4)" style="fill: none; stroke: #b0b0b0; stroke-opacity: 0.18; stroke-width: 0.8; stroke-linecap: square"/>
     </g>
     <g id="line2d_26">
      <g>
       <use xlink:href="#m1f63279d81" x="32.636563" y="33.446667" style="stroke: #000000; stroke-width: 0.8"/>
      </g>
     </g>
     <g id="text_14">
      <!-- 6 -->
      <g transform="translate(19.910313 36.865964) scale(0.09 -0.09)">
       <use xlink:href="#DejaVuSans-36"/>
      </g>
     </g>
    </g>
    <g id="ytick_8">
     <g id="line2d_27">
      <path d="M 32.636563 11.574444 
L 480.321562 11.574444 
" clip-path="url(#pbfe7d9f0b4)" style="fill: none; stroke: #b0b0b0; stroke-opacity: 0.18; stroke-width: 0.8; stroke-linecap: square"/>
     </g>
     <g id="line2d_28">
      <g>
       <use xlink:href="#m1f63279d81" x="32.636563" y="11.574444" style="stroke: #000000; stroke-width: 0.8"/>
      </g>
     </g>
     <g id="text_15">
      <!-- 7 -->
      <g transform="translate(19.910313 14.993741) scale(0.09 -0.09)">
       <defs>
        <path id="DejaVuSans-37" d="M 525 4666 
L 3525 4666 
L 3525 4397 
L 1831 0 
L 1172 0 
L 2766 4134 
L 525 4134 
L 525 4666 
z
" transform="scale(0.015625)"/>
       </defs>
       <use xlink:href="#DejaVuSans-37"/>
      </g>
     </g>
    </g>
    <g id="text_16">
     <!-- Observed error rate (%) -->
     <g transform="translate(14.038594 139.701641) rotate(-90) scale(0.09 -0.09)">
      <defs>
       <path id="DejaVuSans-4f" d="M 2522 4238 
Q 1834 4238 1429 3725 
Q 1025 3213 1025 2328 
Q 1025 1447 1429 934 
Q 1834 422 2522 422 
Q 3209 422 3611 934 
Q 4013 1447 4013 2328 
Q 4013 3213 3611 3725 
Q 3209 4238 2522 4238 
z
M 2522 4750 
Q 3503 4750 4090 4092 
Q 4678 3434 4678 2328 
Q 4678 1225 4090 567 
Q 3503 -91 2522 -91 
Q 1538 -91 948 565 
Q 359 1222 359 2328 
Q 359 3434 948 4092 
Q 1538 4750 2522 4750 
z
" transform="scale(0.015625)"/>
       <path id="DejaVuSans-62" d="M 3116 1747 
Q 3116 2381 2855 2742 
Q 2594 3103 2138 3103 
Q 1681 3103 1420 2742 
Q 1159 2381 1159 1747 
Q 1159 1113 1420 752 
Q 1681 391 2138 391 
Q 2594 391 2855 752 
Q 3116 1113 3116 1747 
z
M 1159 2969 
Q 1341 3281 1617 3432 
Q 1894 3584 2278 3584 
Q 2916 3584 3314 3078 
Q 3713 2572 3713 1747 
Q 3713 922 3314 415 
Q 2916 -91 2278 -91 
Q 1894 -91 1617 61 
Q 1341 213 1159 525 
L 1159 0 
L 581 0 
L 581 4863 
L 1159 4863 
L 1159 2969 
z
" transform="scale(0.015625)"/>
       <path id="DejaVuSans-73" d="M 2834 3397 
L 2834 2853 
Q 2591 2978 2328 3040 
Q 2066 3103 1784 3103 
Q 1356 3103 1142 2972 
Q 928 2841 928 2578 
Q 928 2378 1081 2264 
Q 1234 2150 1697 2047 
L 1894 2003 
Q 2506 1872 2764 1633 
Q 3022 1394 3022 966 
Q 3022 478 2636 193 
Q 2250 -91 1575 -91 
Q 1294 -91 989 -36 
Q 684 19 347 128 
L 347 722 
Q 666 556 975 473 
Q 1284 391 1588 391 
Q 1994 391 2212 530 
Q 2431 669 2431 922 
Q 2431 1156 2273 1281 
Q 2116 1406 1581 1522 
L 1381 1569 
Q 847 1681 609 1914 
Q 372 2147 372 2553 
Q 372 3047 722 3315 
Q 1072 3584 1716 3584 
Q 2034 3584 2315 3537 
Q 2597 3491 2834 3397 
z
" transform="scale(0.015625)"/>
      </defs>
      <use xlink:href="#DejaVuSans-4f"/>
      <use xlink:href="#DejaVuSans-62" transform="translate(78.710938 0)"/>
      <use xlink:href="#DejaVuSans-73" transform="translate(142.1875 0)"/>
      <use xlink:href="#DejaVuSans-65" transform="translate(194.287109 0)"/>
      <use xlink:href="#DejaVuSans-72" transform="translate(255.810547 0)"/>
      <use xlink:href="#DejaVuSans-76" transform="translate(296.923828 0)"/>
      <use xlink:href="#DejaVuSans-65" transform="translate(356.103516 0)"/>
      <use xlink:href="#DejaVuSans-64" transform="translate(417.626953 0)"/>
      <use xlink:href="#DejaVuSans-20" transform="translate(481.103516 0)"/>
      <use xlink:href="#DejaVuSans-65" transform="translate(512.890625 0)"/>
      <use xlink:href="#DejaVuSans-72" transform="translate(574.414062 0)"/>
      <use xlink:href="#DejaVuSans-72" transform="translate(613.777344 0)"/>
      <use xlink:href="#DejaVuSans-6f" transform="translate(652.640625 0)"/>
      <use xlink:href="#DejaVuSans-72" transform="translate(713.822266 0)"/>
      <use xlink:href="#DejaVuSans-20" transform="translate(754.935547 0)"/>
      <use xlink:href="#DejaVuSans-72" transform="translate(786.722656 0)"/>
      <use xlink:href="#DejaVuSans-61" transform="translate(827.835938 0)"/>
      <use xlink:href="#DejaVuSans-74" transform="translate(889.115234 0)"/>
      <use xlink:href="#DejaVuSans-65" transform="translate(928.324219 0)"/>
      <use xlink:href="#DejaVuSans-20" transform="translate(989.847656 0)"/>
      <use xlink:href="#DejaVuSans-28" transform="translate(1021.634766 0)"/>
      <use xlink:href="#DejaVuSans-25" transform="translate(1060.648438 0)"/>
      <use xlink:href="#DejaVuSans-29" transform="translate(1155.667969 0)"/>
     </g>
    </g>
   </g>
   <g id="line2d_29">
    <path d="M 32.823098 164.68 
L 77.218527 164.68 
L 77.218527 155.528443 
L 77.778133 155.604389 
L 77.778133 155.641892 
L 78.524275 155.752562 
L 78.524275 155.788853 
L 79.270417 155.895975 
L 79.270417 155.931111 
L 80.016558 156.034853 
L 80.016558 156.068889 
L 80.7627 156.169408 
L 80.7627 156.202394 
L 81.508842 156.299838 
L 81.508842 156.331824 
L 82.254983 156.426331 
L 82.254983 156.45736 
L 83.001125 156.549062 
L 83.001125 156.579177 
L 83.747267 156.668197 
L 83.747267 156.697437 
L 84.493408 156.783891 
L 84.493408 156.812294 
L 85.23955 156.896291 
L 85.23955 156.923893 
L 86.172227 157.03237 
L 86.172227 157.059017 
L 87.104904 157.163772 
L 87.104904 157.189513 
L 88.037581 157.290736 
L 88.037581 157.315615 
L 88.970258 157.413481 
L 88.970258 157.437542 
L 89.902935 157.532215 
L 89.902935 157.555498 
L 90.835612 157.647131 
L 90.835612 157.669672 
L 91.954825 157.780245 
L 91.954825 157.801943 
L 93.074038 157.908414 
L 93.074038 157.929314 
L 94.19325 158.031908 
L 94.19325 158.052054 
L 95.312463 158.150978 
L 95.312463 158.17041 
L 96.431675 158.265859 
L 96.431675 158.284613 
L 97.737423 158.394879 
L 97.737423 158.412888 
L 99.043171 158.518811 
L 99.043171 158.536117 
L 100.348919 158.63795 
L 100.348919 158.654594 
L 101.654667 158.752569 
L 101.654667 158.768589 
L 103.14695 158.87835 
L 103.14695 158.893698 
L 104.639233 158.998903 
L 104.639233 159.013621 
L 106.131517 159.114549 
L 106.131517 159.128675 
L 107.810335 159.239149 
L 107.810335 159.25265 
L 109.489154 159.358291 
L 109.489154 159.371208 
L 111.167973 159.472328 
L 111.167973 159.484698 
L 113.033327 159.593437 
L 113.033327 159.605238 
L 114.898681 159.70904 
L 114.898681 159.720312 
L 116.950571 159.830283 
L 116.950571 159.841013 
L 119.00246 159.945753 
L 119.00246 159.955978 
L 121.240885 160.065607 
L 121.240885 160.075322 
L 123.47931 160.179543 
L 123.47931 160.188784 
L 125.904271 160.296789 
L 125.904271 160.305556 
L 127.58309 160.374444 
L 127.58309 156.085807 
L 128.888837 156.185933 
L 128.888837 156.202394 
L 130.194585 156.299838 
L 130.194585 156.315861 
L 131.686869 156.426331 
L 131.686869 156.441875 
L 133.179152 156.549062 
L 133.179152 156.564148 
L 134.671435 156.668197 
L 134.671435 156.682844 
L 136.163719 156.783891 
L 136.163719 156.798118 
L 137.656002 156.896291 
L 137.656002 156.910116 
L 139.334821 157.018976 
L 139.334821 157.03237 
L 141.01364 157.137854 
L 141.01364 157.150836 
L 142.692458 157.253099 
L 142.692458 157.265687 
L 144.371277 157.364876 
L 144.371277 157.377088 
L 146.236631 157.48519 
L 146.236631 157.497004 
L 148.101985 157.601611 
L 148.101985 157.613046 
L 149.96734 157.714324 
L 149.96734 157.725398 
L 152.019229 157.834234 
L 152.019229 157.844931 
L 154.071119 157.950085 
L 154.071119 157.960423 
L 156.123008 158.062081 
L 156.123008 158.072078 
L 158.361433 158.180083 
L 158.361433 158.189726 
L 160.599858 158.29395 
L 160.599858 158.303259 
L 163.024819 158.412888 
L 163.024819 158.421853 
L 165.449779 158.527476 
L 165.449779 158.536117 
L 168.061275 158.646284 
L 168.061275 158.654594 
L 170.672771 158.760589 
L 170.672771 158.768589 
L 173.470802 158.87835 
L 173.470802 158.886034 
L 176.268833 158.991516 
L 176.268833 158.998903 
L 179.2534 159.107459 
L 179.2534 159.114549 
L 182.424502 159.22558 
L 182.424502 159.232373 
L 185.595604 159.338798 
L 185.595604 159.345312 
L 188.953242 159.453663 
L 188.953242 159.459899 
L 192.497415 159.569668 
L 192.497415 159.575631 
L 196.228123 159.686342 
L 196.228123 159.692036 
L 199.958831 159.797808 
L 199.958831 159.80325 
L 203.876075 159.909613 
L 203.876075 159.91481 
L 207.979854 160.02138 
L 207.979854 160.026336 
L 212.270169 160.13276 
L 212.270169 160.137482 
L 216.933554 160.247939 
L 216.933554 160.252425 
L 221.783475 160.361694 
L 221.783475 160.365952 
L 226.819931 160.473803 
L 226.819931 160.477844 
L 232.229458 160.58791 
L 232.229458 160.591734 
L 237.825521 160.699614 
L 237.825521 160.703232 
L 243.794654 160.812233 
L 243.794654 160.81565 
L 250.136858 160.925112 
L 250.136858 160.928332 
L 256.852133 161.037665 
L 256.852133 161.040695 
L 263.940479 161.149375 
L 263.940479 161.152222 
L 271.588431 161.262465 
L 271.588431 161.265133 
L 279.79599 161.376039 
L 279.79599 161.378532 
L 288.563154 161.489304 
L 288.563154 161.491629 
L 297.889925 161.601573 
L 297.889925 161.603738 
L 306.65709 161.700133 
L 306.65709 160.213243 
L 311.880081 160.293859 
L 311.880081 158.835719 
L 317.476144 158.946783 
L 317.476144 158.950538 
L 323.258742 159.060932 
L 323.258742 159.064539 
L 329.227875 159.174091 
L 329.227875 159.177554 
L 335.383544 159.28611 
L 335.383544 159.289434 
L 335.570079 159.289434 
L 335.570079 157.945941 
L 339.860394 158.035947 
L 339.860394 156.711977 
L 342.658425 156.779137 
L 342.658425 155.467873 
L 346.575669 155.57741 
L 346.575669 155.582819 
L 350.492912 155.689656 
L 350.492912 155.694932 
L 351.612125 155.72122 
L 351.612125 154.447381 
L 352.731337 154.477214 
L 352.731337 153.208555 
L 355.90244 153.314527 
L 355.90244 153.321085 
L 359.260077 153.431429 
L 359.260077 153.437853 
L 362.617715 153.54595 
L 362.617715 153.552244 
L 365.975352 153.658163 
L 365.975352 153.664331 
L 366.534958 153.676646 
L 366.534958 152.460881 
L 367.654171 152.494918 
L 367.654171 151.283873 
L 370.638737 151.394829 
L 370.638737 151.402161 
L 373.623304 151.511174 
L 373.623304 151.518378 
L 376.607871 151.625499 
L 376.607871 151.632579 
L 377.540548 151.66082 
L 377.540548 150.48494 
L 377.727083 150.48494 
L 377.727083 149.31033 
L 380.338579 149.41758 
L 380.338579 149.425768 
L 380.898185 149.442117 
L 380.898185 148.278762 
L 383.323146 148.383507 
L 383.323146 148.392175 
L 383.882752 148.409484 
L 383.882752 147.256562 
L 384.442358 147.275049 
L 384.442358 146.124562 
L 386.680783 146.232158 
L 386.680783 146.241878 
L 388.546137 146.328896 
L 388.546137 145.192171 
L 390.598027 145.293776 
L 390.598027 145.303878 
L 392.463381 145.394327 
L 392.463381 144.270461 
L 392.836452 144.281036 
L 392.836452 143.158911 
L 394.515271 143.247704 
L 394.515271 142.131317 
L 396.380625 142.235442 
L 396.380625 142.246952 
L 398.245979 142.350013 
L 398.245979 142.361406 
L 399.924798 142.452132 
L 399.924798 141.352592 
L 400.484404 141.376262 
L 400.484404 140.278941 
L 402.349758 140.389799 
L 402.349758 140.402054 
L 402.722829 140.414297 
L 402.722829 139.324097 
L 404.401648 139.425928 
L 404.401648 139.4386 
L 406.080467 139.539515 
L 406.080467 138.459554 
L 407.759285 138.563914 
L 407.759285 138.5769 
L 408.132356 138.589874 
L 408.132356 137.516286 
L 409.438104 137.597011 
L 409.438104 136.527635 
L 411.116923 136.638689 
L 411.116923 136.65251 
L 411.303458 136.65251 
L 411.303458 135.588867 
L 412.236135 135.646077 
L 412.236135 134.585542 
L 413.541883 134.674012 
L 413.541883 133.617588 
L 414.10149 133.647982 
L 414.10149 132.59361 
L 415.593773 132.703067 
L 415.593773 132.718643 
L 417.086056 132.827249 
L 417.086056 132.842704 
L 418.57834 132.950471 
L 418.57834 132.965806 
L 418.95141 132.981127 
L 418.95141 131.940314 
L 419.511017 131.971901 
L 419.511017 130.93308 
L 420.816765 131.030427 
L 420.816765 131.046597 
L 421.189835 131.062752 
L 421.189835 130.028856 
L 421.935977 130.07869 
L 421.935977 129.047247 
L 422.868654 129.115411 
L 422.868654 128.086894 
L 424.174402 128.191545 
L 424.174402 128.208929 
L 424.920544 128.260981 
L 424.920544 127.23825 
L 425.48015 127.273824 
L 425.48015 126.253019 
L 425.666685 126.253019 
L 425.666685 125.233183 
L 426.226292 125.270591 
L 426.226292 124.25267 
L 426.785898 124.290953 
L 426.785898 123.274941 
L 426.972433 123.274941 
L 426.972433 122.259891 
L 427.53204 122.299985 
L 427.53204 121.286834 
L 428.091646 121.32779 
L 428.091646 120.31653 
L 428.837787 120.37922 
L 428.837787 119.370312 
L 429.397394 119.412936 
L 429.397394 118.405905 
L 429.583929 118.405905 
L 429.583929 117.39982 
L 429.770465 117.39982 
L 429.770465 116.394681 
L 430.330071 116.439998 
L 430.330071 115.436723 
L 430.889677 115.482874 
L 430.889677 114.481457 
L 431.822354 114.57533 
L 431.822354 113.576677 
L 432.00889 113.576677 
L 432.00889 112.578957 
L 432.568496 112.627581 
L 432.568496 111.6317 
L 433.314638 111.705824 
L 433.314638 110.712226 
L 433.501173 110.712226 
L 433.501173 109.719553 
L 434.060779 109.770656 
L 434.060779 108.779804 
L 434.620385 108.831707 
L 434.620385 107.842671 
L 435.366527 107.921685 
L 435.366527 106.934902 
L 436.299204 107.041689 
L 436.299204 107.068324 
L 437.231881 107.174619 
L 437.231881 107.201131 
L 437.791488 107.254083 
L 437.791488 106.273513 
L 438.164558 106.300392 
L 438.164558 105.321163 
L 438.351094 105.321163 
L 438.351094 104.342835 
L 439.097235 104.425944 
L 439.097235 103.449823 
L 439.470306 103.47791 
L 439.470306 102.503119 
L 439.843377 102.531614 
L 439.843377 101.558149 
L 440.589519 101.644776 
L 440.589519 101.673599 
L 441.149125 101.731165 
L 441.149125 100.761177 
L 441.522196 100.79035 
L 441.522196 99.821677 
L 442.081802 99.8808 
L 442.081802 98.913865 
L 442.827944 99.003628 
L 442.827944 99.033494 
L 443.201015 99.063333 
L 443.201015 98.099405 
L 443.38755 98.099405 
L 443.38755 97.136353 
L 443.760621 97.167013 
L 443.760621 96.205257 
L 444.506762 96.298336 
L 444.506762 95.338716 
L 445.252904 95.432802 
L 445.252904 95.464107 
L 445.625975 95.495384 
L 445.625975 94.538727 
L 445.999046 94.570394 
L 445.999046 93.615018 
L 446.185581 93.615018 
L 446.185581 92.660504 
L 446.558652 92.692975 
L 446.558652 91.739737 
L 446.931723 91.772593 
L 446.931723 90.820627 
L 447.677865 90.920258 
L 447.677865 90.953408 
L 447.8644 90.953408 
L 447.8644 90.003949 
L 448.610542 90.104455 
L 448.610542 90.137897 
L 448.983612 90.171309 
L 448.983612 89.224753 
L 449.356683 89.258544 
L 449.356683 88.313244 
L 449.543219 88.313244 
L 449.543219 87.368789 
L 450.102825 87.43791 
L 450.102825 86.495113 
L 450.848967 86.599778 
L 450.848967 86.634604 
L 451.035502 86.634604 
L 451.035502 85.694267 
L 451.595108 85.764633 
L 451.595108 84.825938 
L 451.781644 84.825938 
L 451.781644 83.88808 
L 451.968179 83.88808 
L 451.968179 82.951056 
L 452.154715 82.951056 
L 452.154715 82.014865 
L 452.714321 82.088312 
L 452.714321 81.153752 
L 452.900856 81.153752 
L 452.900856 80.220021 
L 453.460463 80.29493 
L 453.460463 80.332335 
L 454.020069 80.407045 
L 454.020069 79.476124 
L 454.39314 79.513825 
L 454.39314 78.584123 
L 454.952746 78.660213 
L 454.952746 78.698208 
L 455.512352 78.774096 
L 455.512352 78.81199 
L 455.698888 78.81199 
L 455.698888 77.885467 
L 456.258494 77.961938 
L 456.258494 77.037014 
L 456.445029 77.037014 
L 456.445029 76.112903 
L 456.631565 76.112903 
L 456.631565 75.189606 
L 457.191171 75.268278 
L 457.191171 74.346569 
L 457.750777 74.425878 
L 457.750777 73.505752 
L 457.937313 73.505752 
L 457.937313 72.586433 
L 458.123848 72.586433 
L 458.123848 71.66792 
L 458.683454 71.749402 
L 458.683454 70.832462 
L 458.86999 70.832462 
L 458.86999 69.916324 
L 459.24306 69.957778 
L 459.24306 69.042824 
L 459.429596 69.042824 
L 459.429596 68.128669 
L 459.616131 68.128669 
L 459.616131 67.215314 
L 460.175738 67.300399 
L 460.175738 67.342885 
L 460.735344 67.427748 
L 460.735344 66.517085 
L 460.921879 66.517085 
L 460.921879 65.607216 
L 461.481485 65.693442 
L 461.481485 64.785118 
L 461.854556 64.828551 
L 461.854556 63.921393 
L 462.041092 63.921393 
L 462.041092 63.015023 
L 462.227627 63.015023 
L 462.227627 62.10944 
L 462.600698 62.153958 
L 462.600698 61.249535 
L 463.160304 61.339201 
L 463.160304 60.436307 
L 463.34684 60.436307 
L 463.34684 59.534194 
L 463.533375 59.534194 
L 463.533375 58.632862 
L 463.906446 58.67875 
L 463.906446 57.778568 
L 464.466052 57.870963 
L 464.466052 57.917101 
L 464.652587 57.917101 
L 464.652587 57.018803 
L 465.212194 57.111694 
L 465.212194 56.214905 
L 465.398729 56.214905 
L 465.398729 55.318889 
L 465.585265 55.318889 
L 465.585265 54.423645 
L 465.7718 54.423645 
L 465.7718 53.529172 
L 466.144871 53.57702 
L 466.144871 52.683681 
L 466.704477 52.779981 
L 466.704477 51.888136 
L 467.264083 51.984995 
L 467.264083 52.033362 
L 467.82369 52.129971 
L 467.82369 51.240699 
L 468.383296 51.337863 
L 468.383296 51.386383 
L 468.569831 51.386383 
L 468.569831 50.498951 
L 468.942902 50.547788 
L 468.942902 49.661474 
L 469.129437 49.661474 
L 469.129437 48.775916 
L 469.502508 48.825427 
L 469.502508 47.940983 
L 469.689044 47.940983 
L 469.689044 47.057294 
L 470.24865 47.157612 
L 470.24865 46.275387 
L 470.435185 46.275387 
L 470.435185 45.393914 
L 470.808256 45.444717 
L 470.808256 44.564348 
L 471.181327 44.615461 
L 471.181327 43.736194 
L 471.740933 43.838993 
L 471.740933 42.961176 
L 471.927469 42.961176 
L 471.927469 42.084105 
L 472.487075 42.188132 
L 472.487075 42.240079 
L 472.860146 42.291982 
L 472.860146 41.417053 
L 473.233217 41.469261 
L 473.233217 40.59542 
L 473.606288 40.647932 
L 473.606288 39.775178 
L 473.792823 39.775178 
L 473.792823 38.903162 
L 473.979358 38.903162 
L 473.979358 38.031883 
L 474.165894 38.031883 
L 474.165894 37.161341 
L 474.538965 37.215191 
L 474.538965 36.345729 
L 475.098571 36.453982 
L 475.098571 35.58594 
L 475.285106 35.58594 
L 475.285106 34.718629 
L 475.471642 34.718629 
L 475.471642 33.852049 
L 476.031248 33.962174 
L 476.031248 33.097006 
L 476.217783 33.097006 
L 476.217783 32.232565 
L 476.404319 32.232565 
L 476.404319 31.368852 
L 476.590854 31.368852 
L 476.590854 30.505864 
L 476.77739 30.505864 
L 476.77739 29.643601 
L 476.963925 29.643601 
L 476.963925 28.782062 
L 477.15046 28.782062 
L 477.15046 27.921246 
L 477.336996 27.921246 
L 477.336996 27.061152 
L 477.523531 27.061152 
L 477.523531 26.20178 
L 477.896602 26.259817 
L 477.896602 26.317807 
L 478.083138 26.317807 
L 478.083138 25.459825 
L 478.269673 25.459825 
L 478.269673 24.602562 
L 478.456208 24.602562 
L 478.456208 23.746016 
L 478.642744 23.746016 
L 478.642744 22.890186 
L 478.829279 22.890186 
L 478.829279 22.035072 
L 479.015815 22.035072 
L 479.015815 21.180673 
L 479.20235 21.180673 
L 479.20235 20.326988 
L 479.388885 20.326988 
L 479.388885 19.474015 
L 479.575421 19.474015 
L 479.575421 18.621755 
L 479.948492 18.682689 
L 479.948492 18.743571 
L 480.135027 18.743571 
L 480.135027 17.892681 
L 480.321563 17.892681 
L 480.321563 17.0425 
L 480.321563 17.0425 
" clip-path="url(#pbfe7d9f0b4)" style="fill: none; stroke: #267594; stroke-width: 1.4; stroke-linecap: square"/>
   </g>
   <g id="line2d_30">
    <path d="M 32.823098 164.68 
L 69.197504 164.68 
L 69.197504 153.520703 
L 69.570575 153.577349 
L 69.570575 153.633423 
L 70.130181 153.743889 
L 70.130181 153.798297 
L 70.689787 153.905506 
L 70.689787 153.958322 
L 71.249394 154.062416 
L 71.249394 154.113709 
L 71.809 154.214822 
L 71.809 154.264656 
L 72.368606 154.362914 
L 72.368606 154.411351 
L 72.928213 154.506873 
L 72.928213 154.553971 
L 73.487819 154.646871 
L 73.487819 154.692684 
L 74.047425 154.783067 
L 74.047425 154.827648 
L 74.607031 154.915615 
L 74.607031 154.959012 
L 75.166638 155.04466 
L 75.166638 155.08692 
L 75.726244 155.170338 
L 75.726244 155.211506 
L 76.28585 155.29278 
L 76.28585 155.332896 
L 76.845456 155.412109 
L 76.845456 155.451214 
L 77.405062 155.528443 
L 77.405062 155.566574 
L 77.964669 155.641892 
L 77.964669 155.679086 
L 78.71081 155.788853 
L 78.71081 155.824849 
L 79.456952 155.931111 
L 79.456952 155.965967 
L 80.203094 156.068889 
L 80.203094 156.102658 
L 80.949235 156.202394 
L 80.949235 156.235127 
L 81.695377 156.331824 
L 81.695377 156.363566 
L 82.441519 156.45736 
L 82.441519 156.488156 
L 83.18766 156.579177 
L 83.18766 156.609069 
L 83.933802 156.697437 
L 83.933802 156.726465 
L 84.679944 156.812294 
L 84.679944 156.840494 
L 85.612621 156.9513 
L 85.612621 156.978513 
L 86.545298 157.085478 
L 86.545298 157.111757 
L 87.477975 157.215078 
L 87.477975 157.240469 
L 88.410652 157.340328 
L 88.410652 157.364876 
L 89.343329 157.461445 
L 89.343329 157.48519 
L 90.276006 157.578629 
L 90.276006 157.601611 
L 91.208683 157.69207 
L 91.208683 157.714324 
L 92.327896 157.823504 
L 92.327896 157.844931 
L 93.447108 157.950085 
L 93.447108 157.970729 
L 94.566321 158.072078 
L 94.566321 158.091981 
L 95.685533 158.189726 
L 95.685533 158.208928 
L 96.804746 158.303259 
L 96.804746 158.321796 
L 98.110494 158.430794 
L 98.110494 158.448598 
L 99.416242 158.553327 
L 99.416242 158.570441 
L 100.72199 158.671148 
L 100.72199 158.68761 
L 102.027738 158.784522 
L 102.027738 158.80037 
L 103.520021 158.908965 
L 103.520021 158.924152 
L 105.012304 159.028263 
L 105.012304 159.042829 
L 106.504588 159.142729 
L 106.504588 159.156712 
L 108.183406 159.266084 
L 108.183406 159.279451 
L 109.862225 159.384062 
L 109.862225 159.396855 
L 111.541044 159.497009 
L 111.541044 159.509262 
L 113.406398 159.616986 
L 113.406398 159.628678 
L 115.271752 159.731533 
L 115.271752 159.742704 
L 117.323642 159.851695 
L 117.323642 159.86233 
L 118.815925 159.935483 
L 118.815925 155.211506 
L 119.935137 155.312881 
L 119.935137 155.332896 
L 121.05435 155.431703 
L 121.05435 155.451214 
L 122.173563 155.547548 
L 122.173563 155.566574 
L 123.292775 155.660527 
L 123.292775 155.679086 
L 124.598523 155.788853 
L 124.598523 155.806888 
L 125.904271 155.913578 
L 125.904271 155.931111 
L 127.210019 156.034853 
L 127.210019 156.051904 
L 128.515767 156.152818 
L 128.515767 156.169408 
L 129.821515 156.267607 
L 129.821515 156.283753 
L 131.127263 156.379346 
L 131.127263 156.395067 
L 132.619546 156.503468 
L 132.619546 156.518723 
L 134.111829 156.623933 
L 134.111829 156.638742 
L 135.604112 156.740899 
L 135.604112 156.755282 
L 137.096396 156.854518 
L 137.096396 156.868492 
L 138.775215 156.978513 
L 138.775215 156.992048 
L 140.454033 157.09864 
L 140.454033 157.111757 
L 142.132852 157.215078 
L 142.132852 157.227795 
L 143.811671 157.327993 
L 143.811671 157.340328 
L 145.677025 157.449513 
L 145.677025 157.461445 
L 147.542379 157.567082 
L 147.542379 157.578629 
L 149.407733 157.680889 
L 149.407733 157.69207 
L 151.459623 157.801943 
L 151.459623 157.81274 
L 153.511513 157.91888 
L 153.511513 157.929314 
L 155.563402 158.031908 
L 155.563402 158.041996 
L 157.801827 158.150978 
L 157.801827 158.160709 
L 160.040252 158.265859 
L 160.040252 158.27525 
L 162.465212 158.385835 
L 162.465212 158.394879 
L 164.890173 158.501406 
L 164.890173 158.510121 
L 167.501669 158.621213 
L 167.501669 158.629593 
L 170.113165 158.736461 
L 170.113165 158.744526 
L 172.911196 158.855174 
L 172.911196 158.86292 
L 175.709227 158.969237 
L 175.709227 158.976683 
L 178.693794 159.086081 
L 178.693794 159.093225 
L 181.67836 159.19824 
L 181.67836 159.205101 
L 184.849462 159.312584 
L 184.849462 159.319161 
L 188.2071 159.428566 
L 188.2071 159.434863 
L 191.751273 159.545676 
L 191.751273 159.551695 
L 195.295446 159.657676 
L 195.295446 159.663435 
L 199.026154 159.77041 
L 199.026154 159.775914 
L 202.943398 159.88346 
L 202.943398 159.888714 
L 207.047177 159.996441 
L 207.047177 160.00145 
L 211.337492 160.109003 
L 211.337492 160.113774 
L 215.814342 160.220831 
L 215.814342 160.225372 
L 220.664262 160.335964 
L 220.664262 160.340273 
L 225.700719 160.449396 
L 225.700719 160.453484 
L 230.92371 160.560937 
L 230.92371 160.564812 
L 236.519773 160.674098 
L 236.519773 160.677764 
L 242.488906 160.788146 
L 242.488906 160.791605 
L 248.83111 160.902414 
L 248.83111 160.905673 
L 255.546385 161.016311 
L 255.546385 161.019377 
L 262.634731 161.129315 
L 262.634731 161.132194 
L 270.096148 161.240971 
L 270.096148 161.243673 
L 278.117171 161.353426 
L 278.117171 161.355954 
L 286.6978 161.46586 
L 286.6978 161.46822 
L 295.838035 161.577557 
L 295.838035 161.579756 
L 301.993704 161.648507 
L 301.993704 160.13591 
L 308.895515 160.246441 
L 308.895515 160.249435 
L 316.170396 160.360272 
L 316.170396 160.363114 
L 319.528033 160.410861 
L 319.528033 158.991516 
L 325.310631 159.100351 
L 325.310631 159.103908 
L 331.279765 159.211944 
L 331.279765 159.21536 
L 337.621969 159.325723 
L 337.621969 159.328998 
L 344.150708 159.438005 
L 344.150708 159.441144 
L 346.94874 159.484698 
L 346.94874 158.189726 
L 347.508346 158.197421 
L 347.508346 156.905513 
L 352.171731 157.014502 
L 352.171731 157.018976 
L 352.731337 157.027911 
L 352.731337 155.757765 
L 356.835117 155.865633 
L 356.835117 155.870705 
L 359.446613 155.936108 
L 359.446613 154.692684 
L 363.177321 154.799832 
L 363.177321 154.805408 
L 365.415746 154.866328 
L 365.415746 153.645807 
L 368.959919 153.756027 
L 368.959919 153.762085 
L 372.504092 153.870005 
L 372.504092 153.875939 
L 372.690627 153.875939 
L 372.690627 152.682072 
L 376.048265 152.792923 
L 376.048265 152.79938 
L 378.100154 152.863564 
L 378.100154 151.688939 
L 378.473225 151.69595 
L 378.473225 150.523222 
L 379.405902 150.553699 
L 379.405902 149.38474 
L 381.084721 149.450279 
L 381.084721 148.287542 
L 383.509681 148.392175 
L 383.509681 148.400834 
L 383.882752 148.409484 
L 383.882752 147.256562 
L 385.561571 147.330273 
L 385.561571 146.183406 
L 387.799996 146.290323 
L 387.799996 146.299981 
L 388.359602 146.319268 
L 388.359602 145.181952 
L 390.411492 145.283663 
L 390.411492 145.293776 
L 391.157633 145.324051 
L 391.157633 144.196129 
L 393.209523 144.302153 
L 393.209523 144.312695 
L 395.261413 144.417519 
L 395.261413 144.427942 
L 396.007554 144.459147 
L 396.007554 143.346724 
L 397.313302 143.41223 
L 397.313302 142.304325 
L 397.499838 142.304325 
L 397.499838 141.197553 
L 399.365192 141.305106 
L 399.365192 141.316996 
L 401.04401 141.411678 
L 401.04401 140.316006 
L 401.417081 140.328336 
L 401.417081 139.234319 
L 403.0959 139.336871 
L 403.0959 139.349632 
L 403.468971 139.36238 
L 403.468971 138.274903 
L 404.215113 138.314689 
L 404.215113 137.229922 
L 405.893931 137.339722 
L 405.893931 137.353386 
L 407.57275 137.462202 
L 407.57275 137.475744 
L 409.251569 137.58359 
L 409.251569 137.597011 
L 410.557317 137.677257 
L 410.557317 136.611008 
L 412.236135 136.721407 
L 412.236135 136.735146 
L 412.982277 136.776282 
L 412.982277 135.717273 
L 414.47456 135.816364 
L 414.47456 135.830464 
L 415.780308 135.914778 
L 415.780308 134.863923 
L 415.966844 134.863923 
L 415.966844 133.81409 
L 416.153379 133.81409 
L 416.153379 132.765279 
L 417.645663 132.873569 
L 417.645663 132.888979 
L 418.018733 132.904374 
L 418.018733 131.86108 
L 418.205269 131.86108 
L 418.205269 130.818795 
L 419.137946 130.884196 
L 419.137946 129.844897 
L 420.443694 129.94548 
L 420.443694 129.962187 
L 421.376371 130.028856 
L 421.376371 128.995952 
L 422.682119 129.098394 
L 422.682119 128.069394 
L 423.614796 128.139295 
L 423.614796 127.113206 
L 424.174402 127.149018 
L 424.174402 126.124868 
L 424.734008 126.16157 
L 424.734008 125.139351 
L 424.920544 125.139351 
L 424.920544 124.118104 
L 425.107079 124.118104 
L 425.107079 123.097828 
L 425.666685 123.137318 
L 425.666685 122.11896 
L 426.226292 122.159321 
L 426.226292 121.142875 
L 426.599362 121.163499 
L 426.599362 120.148487 
L 427.158969 120.190617 
L 427.158969 119.177505 
L 427.718575 119.220492 
L 427.718575 118.209273 
L 427.90511 118.209273 
L 427.90511 117.199008 
L 428.837787 117.288468 
L 428.837787 117.31078 
L 429.210858 117.333072 
L 429.210858 116.326545 
L 429.770465 116.37199 
L 429.770465 115.367334 
L 429.957 115.367334 
L 429.957 114.36362 
L 430.889677 114.457934 
L 430.889677 113.456997 
L 431.076212 113.456997 
L 431.076212 112.456998 
L 431.449283 112.481435 
L 431.449283 111.482827 
L 432.38196 111.582168 
L 432.38196 111.606946 
L 432.941567 111.656431 
L 432.941567 110.66193 
L 433.314638 110.68709 
L 433.314638 109.693966 
L 433.874244 109.745116 
L 433.874244 108.753816 
L 434.060779 108.753816 
L 434.060779 107.763437 
L 434.43385 107.789873 
L 434.43385 106.80086 
L 434.620385 106.80086 
L 434.620385 105.812766 
L 435.179992 105.867349 
L 435.179992 104.881061 
L 436.112669 104.991697 
L 436.112669 105.019292 
L 437.045346 105.129418 
L 437.045346 105.156886 
L 437.978023 105.266505 
L 437.978023 104.287302 
L 438.724165 104.370564 
L 438.724165 103.393571 
L 439.097235 103.42171 
L 439.097235 102.44605 
L 439.843377 102.531614 
L 439.843377 101.558149 
L 440.216448 101.587051 
L 440.216448 100.61491 
L 440.589519 100.644217 
L 440.589519 99.673395 
L 441.33566 99.762445 
L 441.33566 99.792075 
L 442.081802 99.8808 
L 442.081802 99.910321 
L 442.268338 99.910321 
L 442.268338 98.943813 
L 442.827944 99.003628 
L 442.827944 98.03885 
L 443.014479 98.03885 
L 443.014479 97.074949 
L 443.201015 97.074949 
L 443.201015 96.111925 
L 443.947156 96.205257 
L 443.947156 96.236311 
L 444.693298 96.329306 
L 444.693298 96.360247 
L 445.066369 96.391161 
L 445.066369 95.432802 
L 445.43944 95.464107 
L 445.43944 94.507032 
L 446.185581 94.602032 
L 446.185581 94.633641 
L 446.745187 94.696774 
L 446.745187 93.743063 
L 447.118258 93.775002 
L 447.118258 92.822564 
L 447.8644 92.919451 
L 447.8644 92.951688 
L 448.050935 92.951688 
L 448.050935 92.001758 
L 448.610542 92.06697 
L 448.610542 91.118714 
L 448.983612 91.151687 
L 448.983612 90.204691 
L 449.356683 90.238043 
L 449.356683 89.292305 
L 449.543219 89.292305 
L 449.543219 88.347412 
L 450.28936 88.449735 
L 450.28936 88.483781 
L 450.848967 88.551783 
L 450.848967 87.610171 
L 451.595108 87.71316 
L 451.595108 87.747429 
L 451.781644 87.747429 
L 451.781644 86.80827 
L 451.968179 86.80827 
L 451.968179 85.869947 
L 452.154715 85.869947 
L 452.154715 84.932458 
L 452.34125 84.932458 
L 452.34125 83.995802 
L 452.527785 83.995802 
L 452.527785 83.059979 
L 452.900856 83.096223 
L 452.900856 82.161629 
L 453.273927 82.198239 
L 453.273927 81.264873 
L 454.020069 81.375699 
L 454.020069 80.44435 
L 454.39314 80.481622 
L 454.39314 79.551492 
L 454.579675 79.551492 
L 454.579675 78.622185 
L 454.76621 78.622185 
L 454.76621 77.693699 
L 454.952746 77.693699 
L 454.952746 76.766033 
L 455.325817 76.804847 
L 455.325817 75.878392 
L 455.698888 75.917563 
L 455.698888 74.992316 
L 456.258494 75.071336 
L 456.258494 75.110794 
L 456.631565 75.150217 
L 456.631565 74.227343 
L 456.8181 74.227343 
L 456.8181 73.305281 
L 457.377706 73.385575 
L 457.377706 73.425669 
L 457.750777 73.465728 
L 457.750777 72.546023 
L 457.937313 72.546023 
L 457.937313 71.627125 
L 458.123848 71.627125 
L 458.123848 70.709032 
L 458.683454 70.791354 
L 458.683454 70.832462 
L 459.24306 70.914568 
L 459.24306 70.955567 
L 459.802667 71.037458 
L 459.802667 71.07835 
L 459.989202 71.07835 
L 459.989202 70.164505 
L 460.362273 70.205742 
L 460.362273 69.293074 
L 460.548808 69.293074 
L 460.548808 68.381201 
L 460.735344 68.381201 
L 460.735344 67.470123 
L 460.921879 67.470123 
L 460.921879 66.559839 
L 461.108415 66.559839 
L 461.108415 65.650348 
L 461.29495 65.650348 
L 461.29495 64.741648 
L 461.481485 64.741648 
L 461.481485 63.833738 
L 461.854556 63.877585 
L 461.854556 62.97084 
L 462.227627 63.015023 
L 462.227627 62.10944 
L 462.414163 62.10944 
L 462.414163 61.204643 
L 462.973769 61.294388 
L 462.973769 60.391121 
L 463.533375 60.481453 
L 463.533375 60.526561 
L 463.906446 60.571629 
L 463.906446 59.670629 
L 464.092981 59.670629 
L 464.092981 58.770407 
L 464.279517 58.770407 
L 464.279517 57.870963 
L 464.652587 57.917101 
L 464.652587 57.018803 
L 464.839123 57.018803 
L 464.839123 56.121279 
L 465.025658 56.121279 
L 465.025658 55.224531 
L 465.585265 55.318889 
L 465.585265 54.423645 
L 466.144871 54.518571 
L 466.144871 54.565972 
L 466.517942 54.613333 
L 466.517942 53.720317 
L 466.704477 53.720317 
L 466.704477 52.828069 
L 467.264083 52.92412 
L 467.264083 52.972084 
L 467.450619 52.972084 
L 467.450619 52.081687 
L 467.637154 52.081687 
L 467.637154 51.192055 
L 467.82369 51.192055 
L 467.82369 50.303184 
L 468.010225 50.303184 
L 468.010225 49.415076 
L 468.19676 49.415076 
L 468.19676 48.527728 
L 468.756367 48.627131 
L 468.756367 47.741258 
L 469.315973 47.841206 
L 469.315973 46.956805 
L 469.502508 46.956805 
L 469.502508 46.073159 
L 469.689044 46.073159 
L 469.689044 45.190267 
L 470.062115 45.241244 
L 470.062115 44.35946 
L 470.435185 44.410747 
L 470.435185 43.530069 
L 470.994792 43.633219 
L 470.994792 43.684728 
L 471.367863 43.736194 
L 471.367863 42.857674 
L 471.927469 42.961176 
L 471.927469 42.084105 
L 472.114004 42.084105 
L 472.114004 41.207778 
L 472.67361 41.312504 
L 472.67361 40.437619 
L 473.233217 40.542864 
L 473.233217 40.59542 
L 473.606288 40.647932 
L 473.606288 39.775178 
L 474.165894 39.880761 
L 474.165894 39.009437 
L 474.352429 39.009437 
L 474.352429 38.138849 
L 474.7255 38.192265 
L 474.7255 37.322757 
L 474.912035 37.322757 
L 474.912035 36.453982 
L 475.098571 36.453982 
L 475.098571 35.58594 
L 475.658177 35.694696 
L 475.658177 34.82807 
L 475.844713 34.82807 
L 475.844713 33.962174 
L 476.031248 33.962174 
L 476.031248 33.097006 
L 476.217783 33.097006 
L 476.217783 32.232565 
L 476.404319 32.232565 
L 476.404319 31.368852 
L 476.590854 31.368852 
L 476.590854 30.505864 
L 476.77739 30.505864 
L 476.77739 29.643601 
L 476.963925 29.643601 
L 476.963925 28.782062 
L 477.15046 28.782062 
L 477.15046 27.921246 
L 477.336996 27.921246 
L 477.336996 27.061152 
L 477.523531 27.061152 
L 477.523531 26.20178 
L 477.710067 26.20178 
L 477.710067 25.343128 
L 478.083138 25.401501 
L 478.083138 24.543903 
L 478.456208 24.602562 
L 478.456208 23.746016 
L 478.642744 23.746016 
L 478.642744 22.890186 
L 478.829279 22.890186 
L 478.829279 22.035072 
L 479.015815 22.035072 
L 479.015815 21.180673 
L 479.20235 21.180673 
L 479.20235 20.326988 
L 479.388885 20.326988 
L 479.388885 19.474015 
L 479.575421 19.474015 
L 479.575421 18.621755 
L 479.948492 18.682689 
L 479.948492 18.743571 
L 480.135027 18.743571 
L 480.135027 17.892681 
L 480.321563 17.892681 
L 480.321563 17.0425 
L 480.321563 17.0425 
" clip-path="url(#pbfe7d9f0b4)" style="fill: none; stroke: #ba7545; stroke-width: 1.4; stroke-linecap: square"/>
   </g>
   <g id="patch_3">
    <path d="M 32.636563 164.68 
L 32.636563 7.2 
" style="fill: none; stroke: #000000; stroke-width: 0.8; stroke-linejoin: miter; stroke-linecap: square"/>
   </g>
   <g id="patch_4">
    <path d="M 32.636563 164.68 
L 480.321563 164.68 
" style="fill: none; stroke: #000000; stroke-width: 0.8; stroke-linejoin: miter; stroke-linecap: square"/>
   </g>
   <g id="legend_1">
    <g id="line2d_31">
     <path d="M 39.836563 17.67875 
L 47.836563 17.67875 
L 47.836563 17.67875 
L 55.836563 17.67875 
L 55.836563 17.67875 
" style="fill: none; stroke: #267594; stroke-width: 1.4; stroke-linecap: square"/>
    </g>
    <g id="text_17">
     <!-- T = 1 -->
     <g transform="translate(62.236563 20.47875) scale(0.08 -0.08)">
      <defs>
       <path id="DejaVuSans-54" d="M -19 4666 
L 3928 4666 
L 3928 4134 
L 2272 4134 
L 2272 0 
L 1638 0 
L 1638 4134 
L -19 4134 
L -19 4666 
z
" transform="scale(0.015625)"/>
       <path id="DejaVuSans-3d" d="M 678 2906 
L 4684 2906 
L 4684 2381 
L 678 2381 
L 678 2906 
z
M 678 1631 
L 4684 1631 
L 4684 1100 
L 678 1100 
L 678 1631 
z
" transform="scale(0.015625)"/>
      </defs>
      <use xlink:href="#DejaVuSans-54"/>
      <use xlink:href="#DejaVuSans-20" transform="translate(61.083984 0)"/>
      <use xlink:href="#DejaVuSans-3d" transform="translate(92.871094 0)"/>
      <use xlink:href="#DejaVuSans-20" transform="translate(176.660156 0)"/>
      <use xlink:href="#DejaVuSans-31" transform="translate(208.447266 0)"/>
     </g>
    </g>
    <g id="line2d_32">
     <path d="M 39.836563 29.42125 
L 47.836563 29.42125 
L 47.836563 29.42125 
L 55.836563 29.42125 
L 55.836563 29.42125 
" style="fill: none; stroke: #ba7545; stroke-width: 1.4; stroke-linecap: square"/>
    </g>
    <g id="text_18">
     <!-- Local fitted T -->
     <g transform="translate(62.236563 32.22125) scale(0.08 -0.08)">
      <defs>
       <path id="DejaVuSans-4c" d="M 628 4666 
L 1259 4666 
L 1259 531 
L 3531 531 
L 3531 0 
L 628 0 
L 628 4666 
z
" transform="scale(0.015625)"/>
       <path id="DejaVuSans-6c" d="M 603 4863 
L 1178 4863 
L 1178 0 
L 603 0 
L 603 4863 
z
" transform="scale(0.015625)"/>
       <path id="DejaVuSans-66" d="M 2375 4863 
L 2375 4384 
L 1825 4384 
Q 1516 4384 1395 4259 
Q 1275 4134 1275 3809 
L 1275 3500 
L 2222 3500 
L 2222 3053 
L 1275 3053 
L 1275 0 
L 697 0 
L 697 3053 
L 147 3053 
L 147 3500 
L 697 3500 
L 697 3744 
Q 697 4328 969 4595 
Q 1241 4863 1831 4863 
L 2375 4863 
z
" transform="scale(0.015625)"/>
       <path id="DejaVuSans-69" d="M 603 3500 
L 1178 3500 
L 1178 0 
L 603 0 
L 603 3500 
z
M 603 4863 
L 1178 4863 
L 1178 4134 
L 603 4134 
L 603 4863 
z
" transform="scale(0.015625)"/>
      </defs>
      <use xlink:href="#DejaVuSans-4c"/>
      <use xlink:href="#DejaVuSans-6f" transform="translate(53.962891 0)"/>
      <use xlink:href="#DejaVuSans-63" transform="translate(115.144531 0)"/>
      <use xlink:href="#DejaVuSans-61" transform="translate(170.125 0)"/>
      <use xlink:href="#DejaVuSans-6c" transform="translate(231.404297 0)"/>
      <use xlink:href="#DejaVuSans-20" transform="translate(259.1875 0)"/>
      <use xlink:href="#DejaVuSans-66" transform="translate(290.974609 0)"/>
      <use xlink:href="#DejaVuSans-69" transform="translate(326.179688 0)"/>
      <use xlink:href="#DejaVuSans-74" transform="translate(353.962891 0)"/>
      <use xlink:href="#DejaVuSans-74" transform="translate(393.171875 0)"/>
      <use xlink:href="#DejaVuSans-65" transform="translate(432.380859 0)"/>
      <use xlink:href="#DejaVuSans-64" transform="translate(493.904297 0)"/>
      <use xlink:href="#DejaVuSans-20" transform="translate(557.380859 0)"/>
      <use xlink:href="#DejaVuSans-54" transform="translate(589.167969 0)"/>
     </g>
    </g>
   </g>
  </g>
 </g>
 <defs>
  <clipPath id="pbfe7d9f0b4">
   <rect x="32.636563" y="7.2" width="447.685" height="157.48"/>
  </clipPath>
 </defs>
</svg>
